<mxfile host="65bd71144e">
    <diagram id="H6qXuhqzospF4rZSu77A" name="Page-1">
        <mxGraphModel dx="892" dy="664" grid="1" gridSize="10" guides="1" tooltips="1" connect="1" arrows="1" fold="1" page="1" pageScale="1" pageWidth="850" pageHeight="1100" math="0" shadow="0">
            <root>
                <mxCell id="0"/>
                <mxCell id="1" parent="0"/>
                <mxCell id="2" value="http://ics2o.mths.ca" style="swimlane;whiteSpace=wrap;html=1;" parent="1" vertex="1">
                    <mxGeometry x="80" y="80" width="760" height="480" as="geometry"/>
                </mxCell>
                <mxCell id="8" value="" style="shape=image;verticalLabelPosition=bottom;labelBackgroundColor=default;verticalAlign=top;aspect=fixed;imageAspect=0;image=data:image/png,iVBORw0KGgoAAAANSUhEUgAAASMAAACtCAMAAADMM+kDAAABIFBMVEX///8VTzwKWTALWDEJWy8MVjIHXywGYSsJXC4MVTMFYyoOUjUEZCkPUDYSSzkRTTgAAAADZycOUTUGIgD4+PiytrLS09ITSTolNiQARzIAQywBaiUARC4URzwASTUMJggAPSQABwDp8Ou2w77R3tYAHACbtaMAGADa4t5Da12ltK4RRjQAUR8AOR5XeW0AFwB+looAWBoAUgAATSLBzMgmY0SXqqMoWkkAThQAQB7j6edphnuInpYARwBUfGcARxAAVRxUhGM1d0wiV0UARAYARhkmaT4AUAVvkn6JpZVtkXtjgXacrqe6xsI8ZlcAMxQAPAAAWgBDdlgnYEQAOAupwLGSrpwxbUpHfVtxmH5ShGAvdUc7a1NhhXIAQBhMdmFB/ywGAAAXcElEQVR4nN2di1vbSJLAJRsDDoO1i3VkpNVqtbaPkx3Zp4wUv4PJEgccbMgyQ7jcBeb//y9O/X5IMgqIL1j1zUwmcrceP1VXV1W3upV/1J9D/nKoFEjqf6fyOpI3b96AfznRNM2Aomn7RA6o7AGpEqkQ+WeRGRGpAVFrGpJ9wIcgQlwgmj2CBtEpAylFslVURjFENYIIYuJVaI9hEjSojKSwjHJEVFRGeSIqKKNcERWT0ZMQBUFQjhAFUEpFZfQURJX5ebN5Ny8H54tIzoOCMnqSFs1b4DTLYNYAf7a8YjJ6EqLynTIuHSvKzNPH18d311sAUdEYvX4Sokr5z5vz2ZeIUUlpXp/fziCi3QIzekyPVg7mN66y8K4VPTrdwosQFZnRIzv9ua7on+fnSuv2XFG2tgrN6HGIglnZqyhK2Zt5pfct5bNXQEZvnojoRr8OPraUu7uj662iM3pkQwuOlFbUtylbTaU1/KAou7sRooIyenQAUoJ+0VevDEy2cu4BRMVk9PgYrRScH329jrozb3H09RYhKiQjjMhwulhGslSrqWFs4HnQc/Q8bxch2n4ORnr+p8wokBFB1B67yRJ2/N/vg2oiIhjpQ9cRdvvPwai1vBjYpp/rOX9AACPS0IzeupLjRRBkQ5Qvo9WF5Vi2pmrOQ5o09lVDm7j5XRpLxIjaovWMIvHnmRDlyKjhO6atInEa68t2royolH3VyenaVOpvmLl+kJESzrMgyo/R2DFUKg8wcq9wue44n4tTIYy0TIyU1rzyMKL8GDUdhkg117e1HtE3q5/PxalgRlpGRsrNPAOi3BjpbcfUMjKi5YxpPhenghhpmRkp38sPI8rRZo87bYvox3pGbQLJbOZ1cSyQkSYzavicLEO+Qjh/GFG+ff8ENyJ7fbFVF6vRIMdrQ6m/oaOxHKPxH5xfPboP+BYePIwoX0ahiR5ee6Bcv2vZtuFc5u5sRnqkJTAaiQHI/JjVOH4Y0U6ujFxiuB8qOO5PLqbhQ6V+XOpvuBCNMbqXYrT5Da2xCB5ClDMjHTHScm9DWYVjtC8wEsPYyndaYxk8hChnRgpiVLvM85w/IozRvsBIjvTntAZkRAHt4jB29+RkONx+HkbIHmntPM+ZUUI1epI6nwtJYESH0aglBG0NEPKAnJycAEDe2e3ipuV+SmXUCJdT358uwxRfWXdXfVCg3zmMm1wjO6NG2Peb8qHOEl913Iyu0Q9Tjfq4Gd3EtN9s4RLjC8e2GaP9ZEY00A/oiY5LCFFL0YEoR97u+88okExh1FheOqYF5nlZpnMZD6f0TtvEBYzof3or6XdbZNSa9i5PVc1WB72+gPxwOgCnueJikdAHh0xY1e05JryEOUmKVlxfRb9HBZzTi2XY6TnRlbuUEUqnxRgxRHf0XB5qaMMW/vvRyQn530RGuu9Y1AeOHtW0xRet+yb/e+QHOQMxdtfgzza+u2nXsGtqdEjTbMuhT+tObceABU3Stbm+YaJDoEvsd0mwohpOLFxpXPChYXQ1y7RAeTvCWzdY0jHGiOWLvtC7Dr2SxOg9vc8kRisTXds2bELCmfCvzyD3ZhsGfgqtK/TgqsDoin8UGptNMCDGSO/Rp9ZUUICv51yIiFYOVlZ6D1iuXMBon+ZlZUZsMPYL6/rfbUmMFkwtMKOdV4zRtIuUx+n5fqTr+MlY0ON26bvtTacX+FbF2F1k1DPpA9SMK/zufHaQMKIxTHT5U+WCKwAL8e9JWaK7sNE9MIWqdcHD1bm5oAfUU3T/GI0CIvP5HdP9c6xGW5RRi10KMdrhGPkO0hDMsYPfEsspkvtxfB29fKx1fOioioeWWGEsZzAlKC/ijAaMkaoO4Gm1GjvCq2oTITLaY+6mASLU6CNG+3FGepPJqsX1A4sZ8YuGHBvKaAciYoz6CBELD/RLBKmLqTfxsznUTg8QgS53UYmRsgQPbKgdzmDrU5W2Jcyo4dsMHDipaQ0uVaKoQLeIjB3pAh18LhxFR22NItrjIo5EaV171HVMY7TDMTpEDc3mnldHCEgn5SO1cdhLxdRMrnM7FR9BBzZcbCvwYqeEEdX6FWdbbLsJbmM8IeDYNVHmib/NCbotbO0Yo4MHGI2/vvvIedcxRm7Y3N6BiCijU6jbYq4idHhFmsKb4bsZHHkY3CGJ0SB6JCchR9TEjcthlqFPTQvTZfxaVIO09zFqadaSe1bs2qPwp047tYcYKXp4PgxoACIyan17e/b2LUZEGHXgK9OkeB01JszAvYq6cUcY8bDFJ4gxAq013nezB1OZP0BTBnzLIsm4Gon/MEghFYyTUWiYoc4QPdzWlMbnGYnReEb6h7MTbK55RvgNSq0CqU4NN7bmqXkp+kuIIV+LZ6QP0hCRuI5nRLCpDuewEeWyRB5Ceopwg9Xq/Gjsg4wU5eY9DmM5Ro3tk20BEWIUxlsNpIKahJl2hYHQ0wPhGI3VdEQKaWtMIXDDVTU+Hia5FlIOpxWEUIdYRWiz6vyAdQZGSvMjCmU5Rv+SESFGOH9oScHHyuTUOEEQI/6WGaMQZLdlxaSCLbQZZyS+J1HfdGSONCFRHWdExvQpo3HlHZPvxwve7V2gMX3G6OatjOgXyEjDDX/Q4TyJZudSk1sEvFM4RDymjGoxRuoAO6SpOX3ka/JjAzq2R6bgtw8wI5fnKKZeOhZXpM4hqjIfkhsiiox04HnM0VZQqogx+iQjQoyoLVAtQbS41ej01K6DRO2dxlSfdOrEATZTBtBwsQRG4gvBo0wmtlHY03f4IrjzQyarzs0MYYzG86o0jvZxQevfnAiMGmcyIsQolLx/SaiT2Op1Ld6PUVMZkYBMS8m24XIGO0IZCQ37whaUa1Dj1YrHjY1inZs8wzOKDTV+pOqqDwVG4VsZEWLUIbGAbSZIlwSVk64YRBIOHCPsems0UkuZHpHOSHQ/JiKjKQ5/ODNHbOaKY7SXwoj/BuSanuGDwOjorYxIZGT3mnFZ4ZemD4iXZ5iOA/6x0hhFR/q0K5dTTDwjrhMnjE6FcrghEUYkrGaKRIIB7EHV9/doej/GSBgB8ai+fj2RGUmIIKMl6YrXDb/j8E01jCkMCxuHnTRGQPFpeJ9oklIZScMFU5ERHQW3MaTGAAeVh4QRGwGRGYmDREPapd7IjGREgh6tYzTFZfjoK973cx4TTgsIfrPMiGtYhJFowGRGzNOcurruTh3c85LgpM4PgIiMpHG0IX3WMGK0zTGKIYKMaEifPiGIui+8xxNndFmjjJRTbLiTxt1xj8gzsrIwIt4uSGJFgl9Dl/pUde7zWJGRPNTI9ChitB1nxCH6K2BE3Fkrffi9gzEafLeznhF952bc2cY1ubFK3Uhi1JcZ0XCYiWWzXymjqsBoFkO0u0vr3AC/WmbEIUKMiJKkusXUEIglEhihI0hzQpK4FPO5rKaawEgcUokxCiOwBnNANNs0+txrq/Pfn3OMYgPW3jmt8xUweisy4hEhRnQiR/qcGNJZCyqRpkfkyDTVbqNyQidmr2NE4tx+F6hl5Mg6sGt1BhOx26xziCoxRgzRLuvWlG/AIToTGAmIMCPaklIne9pJjOJ+tkSN2m1Vgn8Z06NkRtgeEUO5dGhSwXUP3XHslSJG1WRGFJE3vOWyK7sxRiIizEin3UWsVYQDB0S6+GFtAWI8DMfUSAeuqzgtbUv+9mXMHhFGiTYbM4LukRm7RYFRlQ6AVLic/yySj0jeD2/P+YSaeyYzkhBhRjTjx2VPkfS7GhjbIwGW8ObH8RkQuANXpSIgSS+cFseqvH+UaLMnQrwGIxMz0SnlGFVjjNAQLBa5yrcTiVEMEWak097C4fu2RtvEyk0tFpcmnZLAlZUnHgK9EzpNUvQASJCvx6qK3lRPiEWcBIoyI26kMUv+iMSwMUYcIsyIm/Lp9IgqjadwaAIOoPUJRIfmmFq0b6fav4o7Wj6paLQZEJo7Y+XCxJiWJLT7jJFqa30XmhPdPWx2ppPJxWTacWOMKuVMjP5nJ5ERj4gw4oYGbefUX3aW/iVy0bpQt8ccQzBTQXfp0BawUpgSMcW87W+Tjto2+qR7oyEFG4OlVfmUEwkANK3BldFgwAi6NdO0DDuS6MApfHd1higbo284oyYxEhBRRsLYoG1ZloG6cWLFJ2zcwnRMwzH5MXfDtKKH6Ayo32Kx+RQ6K2g5MCHevKSHDFRO75zSqmabtPaQjfNq9rQhzW+WRHPaPKNKNkYEkcRIRPQ3Npbtd+NXtk5Ja9BpTogDw/7iHCqXJje2qpnUkre482pXodJzhHkXwL6rJn/IQfZdTMVYIKftO/JN8PfTY4wqmRi1Pp2QaQ8CIxERp0cgbDPEq9pdrs2MbeFXLfqtQ9+rPaC5ZyJXzG5zkJyVIgUTV2NFv5IOwWrSzXTBUzQHayBFKo8ZVTIw0m9uz+hMNYGRjIhnpOhT9slH9F66bcER0Ht0dDmyWZfgtylOMJuDCMj0ChgHraZpkYGwutx0j043+qEWHbaAiixxuRosB5XGF6uigKd/hYwNNDgWVq4OIEeznNFx0ySTckCghBhV1jNqjFs3i9szokMwX3RGHvXobQzR33hGwDD0gCUEBlGdxrIArQvy4wW2Uv2uZZnOABkft+NPeu1Iehf+Uqg8noIfepM+vNg46owuSLlDqerE79B+tTn1JxeRTKKOC7kowBdRrfYpNNhqOzreDJtTG/ufA6VerdA1wsol5DPKcnY2HJ4wQDildvYbkjgimRG8tRAkH1Nm+rnNTqfJPf+400mbFJi/6BqAkRAwkb4TMsr0mYyMKBaAMERJjF6uoH7TiP+APZPTiFH+iDaK0crBVicuaLrCBdCj3BFtFCMUVCaOa0J61pIyyhPRRjFCAa59Ef8FJZu7DcIoX0SbxAjHjGasj2hABbMiW44Y5YxokxjhGVo1+XMl1wYOPhx/gYzyRrRJjEgOgc5rheKiqcqaBQLmerWcP6KNYkQmKWumOemEaDGDU+T8G6cwp1AnhPJEtFmMoniYBEMWdLUtPAGAzLWvP4MWbRojpWmbclSrGU6bRKSEUa6INo1RFNVewrUoEB7wHYrms9ioXnkGRJvHCMSIk0sbzhSLotqOEDzXK6X8EW0iIyQJQxyYUd6INpdRogBGuSMqHqNERNtPQVQ8RmQyH5G4Ju3siJRSMHE2O9SfRX4Oo788i9Sf57T/8XMYPc/r/vUtVam/ykJ1EOskVlGhcRNNxpqNrcF//iRGzyMcoximH0C0KyAqMqNHa5GIqFwuLqPcEBWXUX6ICsvo8YgQpsgnIYiKyujRiD7dRvJpq7S7e/zBQ4gKyujRiN7D09x4Hhhe168LrEdPsEXKuNkMP3tbirK4UdxZYRk9wRZdK0d/vP/ieQvl6MvHxR3Qo0oRGT1Bi7zPYIkO99NspdzdNI+BGlUqleIxekqn7x0pjSNXcb+glPICbBZUQEZP84uuz8veUFG2Wkprdq3o6HO6QjP6cdexdLtV+thQ3q2U8yD6s1xEPTp5GqJhQ/n88VZRIpt986Wk6EER9ejkSYi2IjbAaH/1Al0ZA3sUEapWi8voUTGad95qtM69cqmyarjnc4iouIxkRK+yhbHBbDaDi3UGsznSooIy+jcneIbpGRKwDtA6RCSMRcYaISoko3+3Gskybt1826FTmbMieoCRHk57p1b7J40L/LhgRmvnD7c+nP0YorWMmmCBTFtVzbwXYX82ycIIf1khElqHKJ2R7pvkU4I1Xzi/MMnGSFE+nPwAolRGOvfRyYYx+uVhRsoHLzuivTRGHf4DsJ+2m82PCmD0SxZGynZ2RKmMxtxHO+kfgb80iRj9ko1Rc5gZUSojsLwx/cJ2k2y2wOjb/36g8u1IWDUxO6I1jCJdIosJ5L0By7OJzOj/3jIf++Tt2SdumhhY3i0borWM6OpgyzVlXpT8evKLwOhfr8QA5IypUjjMimg9I7xMjryK4MuVGCM5RvtEi7rDrIjWM1ptHCMvgREfxTJFagyzIlrPKNxMRr8JjIRI/4SupQgZ8YjAgt3z2Sz6T1AREGVjlPdmR88mkNErgZGYDGGMQFtjiILZO/+m5YK4F26wOA8Yojgjt9n3ffxVLGaU+4ZQzyaA0SuBkZQvGtKVMpoeQxR4C2lNo8binkA6kBi5vulYaCsJZxISe7RRjF6lM4pcojOawiCL30eIZouEU+l3aP+FA5HRuMcvZmA7gzZaK2HtAjQvStYyihANv9KiQ4Ko5KWsQeSPIKKDA45Rh60KgJcLwctJbBKjV6mMdne3zz7TkguPIJolLH6P5Bgh2meMpmS5H8c+VfklFjaY0SeUn41kODw7+cB7kNQWHaWerTGCiBgjspKEAz980VfcYiNrF8R6USIzanHCW+UmRVQqs6OtzmLxlV8TYbIHEFFGeKUZTWWb1NAVajaM0c5vD8T97t2QdfpUjVbBHG1rssfWJhwBRIQRWTzUFhbgtzeR0c56RvrRpy8eRVSeEbVxvxDvuvqFLj89gqvF/xdiNIntt6GwBZE2itHOA4zARi/XM+pdz8hRP6ABCFuv8oBjhD+klrca82OLh75wycQokrC0hWO0Ejn0nQUg1d/Jwd8PGCMCQ+rA4gusvnD51dvJxEjRrwMcxh4f350v+v0bokVgP9M/SbEBxwh3+13pTHiVtQIyUpTbEon0y9BUQ0Sj+/vvfpNVH7C2FqbsfLihjM5kHxJPK75ecO5iY8YnQyqVKOr/7neklaQgIw0ywutHxnL7m8lom2NExxrh53He8JrpyFFAEVXm1fNm0nLbgJGGGPW05JzsRjLa5hjdbktDjbsegxRgRJX5XVo4MgCIECOyEY+cS9tERttJjFh6n9tC4RxCqgbf0xdsHwBEkBFZKNgsKiN+BOQjW/oeTsGarxs8ZIzICrRF0KPtBEbCIBHb+aYxA1oUR+T26ebKjBFZvjU2jrb5jOID1gFLqM0r/F7TQBrh9M/q/YguVxxnFBvXJ4w2KDcSZyQNNXKMStXqnNkivXO3dz8a7R3sH9CVV+NtLbaYcxEYyaOxXL4o4NVocT/CKTWekU0YkUWyU/3sDcpny4xiA9YzZjjm1YBal/79HkG0f8DamkYZkQ1GUuK1TRo7SmbEEJXYBtzjeXVOgY0Yov0D2p44RhMyYU3ahMVP3hHv5UoKIw4R24Yr6vuZOWrcM0T7bG4jZKRCRnRClrT/Dd6HY4PmRATJ9oj0abMy51EvAsZIv2eI9kd0gAnYoxpi1CBrQotRLVmofoPmH0mMrne32GD1u2th70TlXZVra3cjqkUjpigDsOpzDeVGyJL0qsXjaLOlnDdEIKPdsyy5EaU1r1YD2kL07yB3fXAwGl1wtQd2jTI6ZJs+M0gTssa4tI3YCxbAaDcjo+8gYfQn+3vzOOr0e0thUJtnxBRJtS5XoDnqzQGbWLsxnX/EaDcjo+UcZB3n6zaykxix3SRUzbQGA9WEO7JSSEZvI/q2XwMQfLzPwCico/T+3dpSlzwjtnUW4gQsUc302WCtfbUJzjZiNHyYEdKiSO7XPlbP4BkJ+x2g3kwd69zuCFepw+IvSDIycv+c0ylY9/HnGlP7O7VqtdeMkRIa/P4ONbAgKG2BtqNughplamt6ExBiU7DuJe9Pn3avyAncbu01z0jRfQdvBqzZzgB4DtBv0gzHmGxIdgTrkZu0yFaj4bbC5TmYosYjirr779z7d/3IEpt9UunytcgIpAfaNljxUiO7SbS7jtaebgggBTPa2hoOh2CjiZkoYKZjIM91hDsJjw4my1UYrvoTdWSC8MPsYnkNRGAEpOHyO000NubTNSiAUeap6QQRDGNNZzRyTAgISA3J62RGGy0Ro0chgqIxERAVjtEzICooo1wRFZNRvogKyShnREVklDeiAjLKG9Hf//7fRWOUP6LCMXoGRAVllCuiYjLKF1EhGeWMqIiM8kZUQEa5IyoeozLSpAoVMu26ignt8Yj2BUDJiIrGaISngUoKdECE4jE4eSOLiKhojOr/eAb5SYz+H/tJwWLNnEsdAAAAAElFTkSuQmCC;" parent="2" vertex="1">
                    <mxGeometry x="410" y="110" width="291" height="173" as="geometry"/>
                </mxCell>
                <mxCell id="4" value="&lt;div style=&quot;&quot;&gt;&lt;span style=&quot;background-color: transparent;&quot;&gt;&lt;font style=&quot;color: rgb(0, 0, 0); font-size: 21px;&quot;&gt;Multiplication, in JS&lt;/font&gt;&lt;/span&gt;&lt;/div&gt;&lt;div&gt;&lt;font style=&quot;color: rgb(0, 0, 0); font-size: 21px;&quot;&gt;&lt;br&gt;&lt;/font&gt;&lt;/div&gt;&lt;div&gt;&lt;font style=&quot;color: rgb(0, 0, 0); font-size: 21px;&quot;&gt;&lt;br&gt;&lt;/font&gt;&lt;/div&gt;&lt;div style=&quot;&quot;&gt;&lt;font style=&quot;font-size: 21px;&quot;&gt;Press the button below to get a random quote from the TV show&lt;/font&gt;&lt;/div&gt;&lt;div style=&quot;&quot;&gt;&lt;font style=&quot;font-size: 21px;&quot;&gt;Breaking Bad&lt;/font&gt;&lt;/div&gt;&lt;div style=&quot;&quot;&gt;&lt;font style=&quot;color: rgb(0, 0, 0); font-size: 21px;&quot;&gt;&lt;br&gt;&lt;/font&gt;&lt;/div&gt;&lt;div style=&quot;&quot;&gt;&lt;br&gt;&lt;/div&gt;&lt;div style=&quot;&quot;&gt;&lt;font style=&quot;font-size: 21px;&quot;&gt;&lt;br&gt;&lt;/font&gt;&lt;/div&gt;&lt;div style=&quot;&quot;&gt;&lt;font style=&quot;font-size: 21px;&quot;&gt;&lt;br&gt;&lt;/font&gt;&lt;/div&gt;&lt;div style=&quot;&quot;&gt;&lt;font style=&quot;font-size: 21px;&quot;&gt;&lt;br&gt;&lt;/font&gt;&lt;/div&gt;&lt;div style=&quot;&quot;&gt;&lt;font style=&quot;font-size: 21px;&quot;&gt;&lt;br&gt;&lt;/font&gt;&lt;/div&gt;&lt;div style=&quot;&quot;&gt;&lt;font style=&quot;font-size: 21px;&quot;&gt;Random Quote Here&lt;/font&gt;&lt;/div&gt;" style="text;strokeColor=none;align=left;fillColor=none;html=1;verticalAlign=middle;whiteSpace=wrap;rounded=0;" parent="1" vertex="1">
                    <mxGeometry x="125" y="130" width="302" height="390" as="geometry"/>
                </mxCell>
                <mxCell id="5" value="Get Random Quote" style="rounded=1;whiteSpace=wrap;html=1;fontSize=18;" parent="1" vertex="1">
                    <mxGeometry x="140" y="350" width="125" height="50" as="geometry"/>
                </mxCell>
            </root>
        </mxGraphModel>
    </diagram>
</mxfile>